<?xml version="1.0" encoding="UTF-8" standalone="no"?>
<svg
   xmlns:dc="http://purl.org/dc/elements/1.1/"
   xmlns:cc="http://creativecommons.org/ns#"
   xmlns:rdf="http://www.w3.org/1999/02/22-rdf-syntax-ns#"
   xmlns:svg="http://www.w3.org/2000/svg"
   xmlns="http://www.w3.org/2000/svg"
   viewBox="0 0 271.74533 147.35468"
   height="147.35468"
   width="271.74533"
   xml:space="preserve"
   id="svg2"
   version="1.1"><metadata
     id="metadata8"><rdf:RDF><cc:Work
         rdf:about=""><dc:format>image/svg+xml</dc:format><dc:type
           rdf:resource="http://purl.org/dc/dcmitype/StillImage" /></cc:Work></rdf:RDF></metadata><defs
     id="defs6"><clipPath
       id="clipPath28"
       clipPathUnits="userSpaceOnUse"><path
         id="path26"
         d="M 0,110.516 H 203.809 V 0 H 0 Z" /></clipPath></defs><g
     transform="matrix(1.3333333,0,0,-1.3333333,0,147.35467)"
     id="g10"><path
       id="path12"
       style="fill:#ffffff;fill-opacity:1;fill-rule:nonzero;stroke:none"
       d="M 20.223,48.593 H 77.752 V 87.319 H 20.223 Z" /><path
       id="path14"
       style="fill:#ed1c24;fill-opacity:1;fill-rule:nonzero;stroke:none"
       d="M 20.455,48.84 H 77.498 V 68.028 H 20.455 Z" /><g
       transform="translate(20.515,48.84)"
       id="g16"><path
         id="path18"
         style="fill:#254aa5;fill-opacity:1;fill-rule:nonzero;stroke:none"
         d="M 0,0 28.463,19.2 0,38.232 Z" /></g><path
       id="path20"
       style="fill:none;stroke:#b8904b;stroke-width:0.97899997;stroke-linecap:butt;stroke-linejoin:miter;stroke-miterlimit:10;stroke-dasharray:none;stroke-opacity:1"
       d="M 20.223,87.32 H 77.752 V 48.594 H 20.223 Z" /><g
       id="g22"><g
         clip-path="url(#clipPath28)"
         id="g24"><g
           transform="translate(40.037,34.738)"
           id="g30"><path
             id="path32"
             style="fill:#f9a91f;fill-opacity:1;fill-rule:nonzero;stroke:none"
             d="m 0,0 c -3.802,0 -6.884,-3.083 -6.884,-6.885 0,-3.802 3.082,-6.882 6.884,-6.882 3.801,0 6.885,3.08 6.885,6.882 C 6.885,-3.083 3.801,0 0,0 m 8.261,-6.885 c 0,-4.563 -3.699,-8.26 -8.261,-8.26 -4.562,0 -8.261,3.697 -8.261,8.26 0,4.562 3.699,8.262 8.261,8.262 4.562,0 8.261,-3.7 8.261,-8.262" /></g><g
           transform="translate(57.935,34.738)"
           id="g34"><path
             id="path36"
             style="fill:#00a650;fill-opacity:1;fill-rule:nonzero;stroke:none"
             d="m 0,0 c -3.802,0 -6.884,-3.083 -6.884,-6.885 0,-3.802 3.082,-6.882 6.884,-6.882 3.802,0 6.884,3.08 6.884,6.882 C 6.884,-3.083 3.802,0 0,0 m 8.261,-6.885 c 0,-4.563 -3.699,-8.26 -8.261,-8.26 -4.563,0 -8.261,3.697 -8.261,8.26 0,4.562 3.698,8.262 8.261,8.262 4.562,0 8.261,-3.7 8.261,-8.262" /></g><g
           transform="translate(31.088,42.311)"
           id="g38"><path
             id="path40"
             style="fill:#117fcd;fill-opacity:1;fill-rule:nonzero;stroke:none"
             d="m 0,0 c -3.803,0 -6.883,-3.083 -6.883,-6.883 0,-3.803 3.08,-6.884 6.883,-6.884 3.802,0 6.884,3.081 6.884,6.884 C 6.884,-3.083 3.802,0 0,0 m 8.261,-6.883 c 0,-4.562 -3.699,-8.261 -8.261,-8.261 -4.563,0 -8.26,3.699 -8.26,8.261 0,4.563 3.697,8.26 8.26,8.26 4.562,0 8.261,-3.697 8.261,-8.26" /></g><g
           transform="translate(48.987,42.311)"
           id="g42"><path
             id="path44"
             style="fill:#231f20;fill-opacity:1;fill-rule:nonzero;stroke:none"
             d="m 0,0 c -3.802,0 -6.884,-3.083 -6.884,-6.883 0,-3.803 3.082,-6.884 6.884,-6.884 3.801,0 6.884,3.081 6.884,6.884 C 6.884,-3.083 3.801,0 0,0 m 8.261,-6.883 c 0,-4.562 -3.698,-8.261 -8.261,-8.261 -4.562,0 -8.261,3.699 -8.261,8.261 0,4.563 3.699,8.26 8.261,8.26 4.563,0 8.261,-3.697 8.261,-8.26" /></g><g
           transform="translate(66.884,42.311)"
           id="g46"><path
             id="path48"
             style="fill:#ee2049;fill-opacity:1;fill-rule:nonzero;stroke:none"
             d="m 0,0 c -3.802,0 -6.884,-3.083 -6.884,-6.883 0,-3.803 3.082,-6.884 6.884,-6.884 3.802,0 6.884,3.081 6.884,6.884 C 6.884,-3.083 3.802,0 0,0 m 8.26,-6.883 c 0,-4.562 -3.697,-8.261 -8.26,-8.261 -4.562,0 -8.261,3.699 -8.261,8.261 0,4.563 3.699,8.26 8.261,8.26 4.563,0 8.26,-3.697 8.26,-8.26" /></g><g
           transform="translate(31.809,27.113)"
           id="g50"><path
             id="path52"
             style="fill:#f9a91f;fill-opacity:1;fill-rule:nonzero;stroke:none"
             d="m 0,0 c -0.022,0.244 -0.033,0.491 -0.033,0.741 0,0.277 0.015,0.552 0.04,0.823 L 1.434,1.855 C 1.375,1.493 1.344,1.121 1.344,0.741 1.344,0.575 1.35,0.411 1.361,0.248 L 0,0" /></g><g
           transform="translate(60.12,34.384)"
           id="g54"><path
             id="path56"
             style="fill:#00a650;fill-opacity:1;fill-rule:nonzero;stroke:none"
             d="m 0,0 c -0.48,0.16 -0.985,0.269 -1.506,0.32 l -0.093,0.728 0.09,0.655 c 0.495,-0.04 0.977,-0.124 1.443,-0.247 z m -10.417,-7.218 c -0.02,0.227 -0.028,0.456 -0.028,0.687 0,0.262 0.012,0.522 0.037,0.777 l 1.423,0.304 c -0.055,-0.353 -0.084,-0.713 -0.084,-1.081 0,-0.152 0.004,-0.303 0.015,-0.451 l -0.623,-0.322 -0.74,0.086" /></g><g
           transform="translate(42.267,34.369)"
           id="g58"><path
             id="path60"
             style="fill:#f9a91f;fill-opacity:1;fill-rule:nonzero;stroke:none"
             d="m 0,0 c -0.512,0.175 -1.051,0.292 -1.61,0.341 l -0.62,1.406 c 0.194,0 0.386,-0.008 0.577,-0.019 0.549,-0.04 1.082,-0.13 1.598,-0.271 L 0,0" /></g><g
           transform="translate(99.133,88.731)"
           id="g62"><path
             id="path64"
             style="fill:#ae8746;fill-opacity:1;fill-rule:nonzero;stroke:none"
             d="m 0,0 h -1.476 l -1.566,1.748 h 1.32 L -0.725,1.01 0.272,1.748 h 1.294 z m -5.257,-5.439 v 0.026 c 0,2.578 1.928,4.688 4.674,4.688 1.671,0 2.681,-0.583 3.549,-1.411 L 1.942,-3.314 c -0.725,0.673 -1.502,1.126 -2.537,1.126 -1.722,0 -2.991,-1.424 -2.991,-3.199 v -0.026 c 0,-1.773 1.256,-3.211 2.991,-3.211 1.113,0 1.825,0.441 2.602,1.166 L 3.03,-8.494 c -0.946,-0.984 -1.981,-1.605 -3.677,-1.605 -2.642,0 -4.61,2.058 -4.61,4.66" /></g><g
           transform="translate(104.609,87.851)"
           id="g66"><path
             id="path68"
             style="fill:#ae8746;fill-opacity:1;fill-rule:nonzero;stroke:none"
             d="M 0,0 H 6.72 V -1.424 H 1.592 V -3.78 H 6.138 V -5.205 H 1.592 V -7.64 H 6.785 V -9.064 H 0 Z" /></g><g
           transform="translate(113.438,80.107)"
           id="g70"><path
             id="path72"
             style="fill:#ae8746;fill-opacity:1;fill-rule:nonzero;stroke:none"
             d="m 0,0 0.957,1.139 c 0.868,-0.751 1.749,-1.178 2.863,-1.178 0.983,0 1.604,0.466 1.604,1.139 V 1.126 C 5.424,1.773 5.063,2.123 3.38,2.511 1.449,2.977 0.362,3.549 0.362,5.219 v 0.026 c 0,1.553 1.295,2.627 3.095,2.627 1.321,0 2.37,-0.401 3.289,-1.139 L 5.892,5.53 C 5.076,6.138 4.261,6.462 3.431,6.462 2.499,6.462 1.955,5.982 1.955,5.387 V 5.361 c 0,-0.7 0.414,-1.01 2.162,-1.424 C 6.033,3.471 7.018,2.784 7.018,1.281 V 1.256 C 7.018,-0.44 5.685,-1.45 3.78,-1.45 2.395,-1.45 1.087,-0.971 0,0" /></g><g
           transform="translate(123.11,87.851)"
           id="g74"><path
             id="path76"
             style="fill:#ae8746;fill-opacity:1;fill-rule:nonzero;stroke:none"
             d="M 0,0 H 1.593 V -4.558 L 5.904,0 H 7.873 L 4.092,-3.898 8.041,-9.064 H 6.099 l -3.096,4.078 -1.41,-1.45 V -9.064 H 0 Z" /></g><g
           transform="translate(137.118,90.4651)"
           id="g78"><path
             id="path80"
             style="fill:#ae8746;fill-opacity:1;fill-rule:nonzero;stroke:none"
             d="M 0,0 1.424,-0.621 -0.233,-1.877 H -1.45 Z m -1.606,-8.105 -3.598,5.49 h 1.889 l 2.525,-4.001 2.564,4.001 H 3.6 L 0,-8.067 v -3.612 h -1.606 z" /></g><g
           transform="translate(101.685,67.993)"
           id="g82"><path
             id="path84"
             style="fill:#ae8746;fill-opacity:1;fill-rule:nonzero;stroke:none"
             d="m 0,0 v 0.026 c 0,1.761 -1.281,3.223 -3.082,3.223 -1.8,0 -3.055,-1.436 -3.055,-3.197 V 0.026 c 0,-1.761 1.281,-3.211 3.081,-3.211 C -1.256,-3.185 0,-1.761 0,0 m -7.807,0 v 0.026 c 0,2.552 1.967,4.686 4.751,4.686 2.784,0 4.726,-2.109 4.726,-4.66 V 0.026 c 0,-2.55 -1.969,-4.687 -4.752,-4.687 -2.784,0 -4.725,2.111 -4.725,4.661" /></g><g
           transform="translate(106.058,72.55)"
           id="g86"><path
             id="path88"
             style="fill:#ae8746;fill-opacity:1;fill-rule:nonzero;stroke:none"
             d="m 0,0 h 1.593 v -7.614 h 4.765 v -1.45 H 0 Z" /></g><g
           transform="translate(115.846,67.061)"
           id="g90"><path
             id="path92"
             style="fill:#ae8746;fill-opacity:1;fill-rule:nonzero;stroke:none"
             d="m 0,0 -3.599,5.491 h 1.89 L 0.816,1.489 3.38,5.491 H 5.205 L 1.606,0.039 v -3.613 l -1.606,0 z" /></g><g
           transform="translate(123.225,72.55)"
           id="g94"><path
             id="path96"
             style="fill:#ae8746;fill-opacity:1;fill-rule:nonzero;stroke:none"
             d="M 0,0 H 1.696 L 4.455,-4.286 7.212,0 H 8.909 V -9.064 H 7.317 v 6.5 L 4.455,-6.837 H 4.402 L 1.567,-2.589 V -9.064 H 0 Z" /></g><g
           transform="translate(138.67,67.837)"
           id="g98"><path
             id="path100"
             style="fill:#ae8746;fill-opacity:1;fill-rule:nonzero;stroke:none"
             d="M 0,0 C 1.206,0 1.956,0.673 1.956,1.618 V 1.645 C 1.956,2.707 1.193,3.262 0,3.262 H -1.85 V 0 Z m -3.443,4.714 h 3.574 c 2.123,0 3.445,-1.204 3.445,-3.03 V 1.657 c 0,-2.033 -1.632,-3.094 -3.627,-3.094 H -1.85 V -4.35 h -1.593 v 9.064" /></g><path
           id="path102"
           style="fill:#ae8746;fill-opacity:1;fill-rule:nonzero;stroke:none"
           d="m 144.73,63.487 h 1.591 v 9.064 h -1.591 z" /><g
           transform="translate(148.625,64.82)"
           id="g104"><path
             id="path106"
             style="fill:#ae8746;fill-opacity:1;fill-rule:nonzero;stroke:none"
             d="M 0,0 1.05,1.087 C 1.581,0.401 2.11,0.013 2.875,0.013 c 0.854,0 1.437,0.569 1.437,1.786 V 7.73 H 5.958 V 1.748 C 5.958,0.673 5.633,-0.13 5.101,-0.66 4.572,-1.191 3.807,-1.463 2.9,-1.463 1.503,-1.463 0.597,-0.816 0,0" /></g><g
           transform="translate(156.938,64.807)"
           id="g108"><path
             id="path110"
             style="fill:#ae8746;fill-opacity:1;fill-rule:nonzero;stroke:none"
             d="m 0,0 0.957,1.139 c 0.868,-0.751 1.749,-1.178 2.862,-1.178 0.984,0 1.604,0.466 1.604,1.14 v 0.025 c 0,0.647 -0.36,0.997 -2.044,1.385 -1.93,0.466 -3.017,1.038 -3.017,2.708 v 0.026 c 0,1.553 1.295,2.627 3.094,2.627 1.321,0 2.371,-0.401 3.289,-1.139 L 5.892,5.529 C 5.074,6.137 4.259,6.462 3.431,6.462 2.499,6.462 1.955,5.982 1.955,5.387 V 5.361 c 0,-0.7 0.414,-1.01 2.162,-1.424 C 6.033,3.471 7.018,2.784 7.018,1.282 V 1.256 C 7.018,-0.44 5.683,-1.45 3.78,-1.45 2.395,-1.45 1.087,-0.971 0,0" /></g><g
           transform="translate(166.609,72.55)"
           id="g112"><path
             id="path114"
             style="fill:#ae8746;fill-opacity:1;fill-rule:nonzero;stroke:none"
             d="M 0,0 H 1.592 V -4.558 L 5.904,0 H 7.873 L 4.092,-3.898 8.041,-9.064 H 6.098 l -3.096,4.078 -1.41,-1.45 V -9.064 H 0 Z" /></g><g
           transform="translate(180.617,75.165)"
           id="g116"><path
             id="path118"
             style="fill:#ae8746;fill-opacity:1;fill-rule:nonzero;stroke:none"
             d="m 0,0 1.425,-0.621 -1.657,-1.256 h -1.217 z m -1.605,-8.105 -3.599,5.49 h 1.89 l 2.525,-4.001 2.564,4.001 H 3.6 L 0,-8.067 v -3.612 h -1.605 z" /></g><g
           transform="translate(93.5,57.251)"
           id="g120"><path
             id="path122"
             style="fill:#ae8746;fill-opacity:1;fill-rule:nonzero;stroke:none"
             d="M 0,0 H 1.761 L 4.493,-6.966 7.213,0 H 8.934 L 5.179,-9.128 h -1.41 z" /></g><g
           transform="translate(108.779,59.867)"
           id="g124"><path
             id="path126"
             style="fill:#ae8746;fill-opacity:1;fill-rule:nonzero;stroke:none"
             d="M 0,0 1.425,-0.622 -0.233,-1.877 H -1.45 Z m -1.606,-8.106 -3.598,5.491 h 1.889 l 2.525,-4.002 2.563,4.002 H 3.6 L 0,-8.067 v -3.612 h -1.606 z" /></g><g
           transform="translate(118.644,52.085)"
           id="g128"><path
             id="path130"
             style="fill:#ae8746;fill-opacity:1;fill-rule:nonzero;stroke:none"
             d="m 0,0 h -2.526 v -2.486 h 2.642 c 1.089,0 1.748,0.426 1.748,1.242 v 0.027 C 1.864,-0.454 1.256,0 0,0 m 1.36,2.602 c 0,0.712 -0.57,1.152 -1.593,1.152 H -2.526 V 1.346 h 2.177 c 1.023,0 1.709,0.401 1.709,1.23 z m -5.452,2.564 h 4.066 C 1.01,5.166 1.825,4.88 2.344,4.363 2.745,3.961 2.952,3.469 2.952,2.861 V 2.835 c 0,-1.088 -0.622,-1.671 -1.295,-2.02 1.061,-0.362 1.8,-0.971 1.8,-2.201 v -0.025 c 0,-1.619 -1.334,-2.488 -3.354,-2.488 h -4.195 v 9.065" /></g><g
           transform="translate(132.082,52.693)"
           id="g132"><path
             id="path134"
             style="fill:#ae8746;fill-opacity:1;fill-rule:nonzero;stroke:none"
             d="m 0,0 v 0.026 c 0,1.761 -1.282,3.223 -3.083,3.223 -1.799,0 -3.055,-1.436 -3.055,-3.197 V 0.026 c 0,-1.76 1.282,-3.212 3.082,-3.212 C -1.256,-3.186 0,-1.761 0,0 m -7.808,0 v 0.026 c 0,2.55 1.968,4.686 4.752,4.686 2.784,0 4.726,-2.11 4.726,-4.66 V 0.026 c 0,-2.552 -1.968,-4.687 -4.753,-4.687 -2.783,0 -4.725,2.111 -4.725,4.661" /></g><g
           transform="translate(140.38,52.757)"
           id="g136"><path
             id="path138"
             style="fill:#ae8746;fill-opacity:1;fill-rule:nonzero;stroke:none"
             d="m 0,0 c 1.139,0 1.864,0.595 1.864,1.515 v 0.026 c 0,0.971 -0.698,1.502 -1.877,1.502 H -2.33 V 0 Z M -3.923,4.493 H 0.118 C 1.256,4.493 2.15,4.156 2.733,3.587 3.212,3.095 3.484,2.421 3.484,1.631 V 1.606 C 3.484,0.117 2.59,-0.777 1.332,-1.139 L 3.78,-4.571 H 1.89 L -0.338,-1.41 H -2.33 v -3.161 h -1.593 v 9.064" /></g></g></g></g></svg>