<svg xmlns="http://www.w3.org/2000/svg" width="338" height="58" class="svg-media is-c1"><path fill="#005ca7" d="M312.3 39.8h-7.9V28a3.3 3.3 0 0 0-6.6 0v11.8H290V18.3h7.2l.6 1.8a9 9 0 0 1 5.4-1.8h1.2a9 9 0 0 1 7.9 9zm24.6-5.8a10.6 10.6 0 0 1-1.3 2.4c-2 3-5.2 4.2-9 4.2-6.5 0-11.7-4.4-11.7-11.4 0-5.5 3.9-11 11.6-11 6.3 0 10 3.5 11 8.6a12 12 0 0 1 0 5h-14.7c-.3 3.2 5.2 4.4 7.1 2.2zm-6.5-7.3c-1-3.5-6.4-3.5-7.7 0zm-43.1 2c0 7.7-6 11.1-12 11.1h-1c-6 0-12-3.4-12-11.1 0-7.8 6-11.2 12-11.2h1c6 0 12 3.4 12 11.1zm-12.5-4.9c-3 0-4.6 2.2-4.6 4.8 0 2.7 1.6 4.9 4.6 4.9 3 0 4.7-2.2 4.7-4.9 0-2.6-1.7-4.8-4.7-4.8z"/><path fill="#00afe9" d="M204.7 39.8h-7.8V28a3.3 3.3 0 0 0-3.4-3.4 3.3 3.3 0 0 0-3.3 3.4v11.8h-7.8V18.3h7.3l.5 1.8a9 9 0 0 1 5.5-1.8 9 9 0 0 1 9 9zm-104.2-.1a9 9 0 0 1-7.8-9V18.3h7.8V30a3.3 3.3 0 0 0 6.7 0V18.3h7.8v21.5h-7.3l-.5-1.9a9 9 0 0 1-6.7 1.8zm28.3-15a3.3 3.3 0 0 0-3.3 3.3v11.8h-7.8V18.3h7.2l.6 1.8a9 9 0 0 1 5.4-1.8 9 9 0 0 1 5.7 2l-3.2 5.6a9 9 0 0 0-4.6-1.3zm20.3 0a3.3 3.3 0 0 0-3.4 3.3v11.8H138V18.3h7.3l.5 1.8a9 9 0 0 1 5.5-1.8h1.2a9.1 9.1 0 0 1 4.5 2l-3.3 5.6a9 9 0 0 0-4.5-1.3zm-65.5 8.8a5 5 0 0 0 3.6-1.5l4.1 4.5a11.6 11.6 0 0 1-8.2 3.3c-5.9 0-11.7-3.4-11.8-11 0-7.7 5.9-11 11.8-11 3 0 6 1 8.2 3.3l-4.1 4.5a5 5 0 0 0-3.6-1.6c-3 0-4.6 2.2-4.6 4.8 0 2.6 1.6 4.7 4.6 4.7zm135.9 0a5 5 0 0 0 3.6-1.5l4.1 4.5a11.6 11.6 0 0 1-8.2 3.3c-6 0-11.8-3.4-11.8-11 0-7.7 5.9-11 11.8-11 3 0 6 1 8.2 3.3l-4.1 4.5a5 5 0 0 0-3.6-1.6c-3 0-4.6 2.2-4.6 4.8 0 2.6 1.6 4.7 4.6 4.7zm-40.6.5a10.6 10.6 0 0 1-1.3 2.4c-2 3-5.3 4.2-9 4.2-6.6 0-11.7-4.4-11.7-11.4 0-5.5 3.8-11 11.6-11 6.2 0 10 3.5 11 8.6a14 14 0 0 1 0 5h-14.8c-.2 3.2 5.3 4.4 7.2 2.2zm-6.6-7.3c-1-3.5-6.4-3.5-7.7 0zm64.8 9.6-9.3-18h7.8l5.4 10.5 5.5-10.5h7.8L240 46h-8zM28.6 57.5a28.5 28.5 0 1 1 12.7-54L34 18.1a12 12 0 0 0-5.4-1.3A12.2 12.2 0 1 0 34 39.9l7.3 14.6a28.6 28.6 0 0 1-12.7 3z"/><path fill="#005ca7" d="M41.3 3.5 34 18v.1a12.2 12.2 0 0 1 0 21.8l7.3 14.6a28.5 28.5 0 0 0 0-51z"/></svg>