<?xml version="1.0" encoding="UTF-8"?>
<svg width="118px" height="50px" viewBox="0 0 118 50" version="1.1" xmlns="http://www.w3.org/2000/svg" xmlns:xlink="http://www.w3.org/1999/xlink">
    <title>Brand/Logo/Horizontal (EN)</title>
    <g id="Brand/Logo/Horizontal-(EN)" stroke="none" stroke-width="1" fill="none" fill-rule="evenodd">
        <g id="Group" stroke-linecap="round" stroke-linejoin="round">
            <g id="Group-2" transform="translate(0.400000, 0.500000)">
                <path d="M43.3181731,5.10625 C43.3181731,2.28701923 41.0335577,0.00144230769 38.2172115,0.00144230769 C35.4008654,0.00144230769 33.11625,2.28701923 33.11625,5.10625 L33.11625,18.3629808 L14.0806731,18.3629808 L14.0806731,5.10625 C14.0806731,2.28701923 11.8008654,0.00144230769 8.98259615,0.00144230769 C6.16913462,0.00144230769 3.88451923,2.28701923 3.88451923,5.10625 L3.88451923,42.0985577 C3.88451923,44.9177885 6.16913462,47.2033654 8.98259615,47.2033654 C11.8008654,47.2033654 14.0806731,44.9177885 14.0806731,42.0985577 L14.0806731,28.5735577 L33.11625,28.5735577 L33.11625,42.0985577 C33.11625,44.9177885 35.4008654,47.2033654 38.2172115,47.2033654 C41.0335577,47.2033654 43.3181731,44.9177885 43.3181731,42.0985577 L43.3181731,5.10625 Z" id="Stroke-6500" stroke="#9E1F63" stroke-width="0.771153846"></path>
                <path d="M38.1852885,36.9686538 L19.5295192,36.9686538 L42.1650962,8.31384615 C42.3804808,8.04269231 42.5689423,7.7475 42.7285577,7.435 C42.7314423,7.43211538 42.7314423,7.42923077 42.7314423,7.42730769 C42.7468269,7.39461538 42.7650962,7.35807692 42.7785577,7.32538462 C42.7843269,7.31769231 42.7843269,7.31480769 42.7872115,7.30711538 C42.8025962,7.27634615 42.8189423,7.24365385 42.8324038,7.21096154 C42.8343269,7.20423077 42.8372115,7.19942308 42.8429808,7.19173077 C42.8564423,7.15903846 42.8660577,7.12923077 42.8795192,7.09653846 C42.8852885,7.08884615 42.8881731,7.08211538 42.8929808,7.0725 C42.9035577,7.04269231 42.9170192,7.01192308 42.9275962,6.98211538 C42.9304808,6.97346154 42.9352885,6.96384615 42.9381731,6.95519231 C42.94875,6.92346154 42.9593269,6.89653846 42.9727885,6.86576923 C42.9756731,6.85615385 42.9785577,6.84557692 42.9833654,6.83788462 C42.9939423,6.80903846 43.0016346,6.77730769 43.0122115,6.74846154 C43.0150962,6.73884615 43.0208654,6.72634615 43.02375,6.71576923 C43.0314423,6.68788462 43.0420192,6.65807692 43.0497115,6.63115385 C43.0554808,6.61865385 43.0574038,6.60903846 43.0602885,6.59653846 C43.0660577,6.56769231 43.0766346,6.53980769 43.0843269,6.51096154 C43.0891346,6.49846154 43.0929808,6.48884615 43.0949038,6.47730769 C43.1025962,6.44846154 43.1083654,6.42057692 43.1160577,6.38980769 C43.1189423,6.37826923 43.1218269,6.36673077 43.1247115,6.35423077 C43.1324038,6.32442308 43.1372115,6.2975 43.1458654,6.27057692 C43.1477885,6.25615385 43.1506731,6.24269231 43.1535577,6.23019231 C43.1583654,6.20230769 43.1641346,6.17634615 43.1699038,6.15038462 C43.1747115,6.13307692 43.1775962,6.11576923 43.1795192,6.10230769 C43.1852885,6.07538462 43.1910577,6.05230769 43.1929808,6.03019231 C43.1958654,6.00711538 43.19875,5.99076923 43.2016346,5.9725 C43.2035577,5.95134615 43.2122115,5.92826923 43.2122115,5.90711538 C43.2170192,5.88403846 43.2199038,5.86 43.2227885,5.83980769 C43.2256731,5.82057692 43.2275962,5.80038462 43.2304808,5.78115385 C43.2333654,5.75423077 43.23625,5.72442308 43.2381731,5.69461538 C43.2410577,5.68307692 43.2439423,5.67057692 43.2439423,5.65903846 C43.2574038,5.53211538 43.2650962,5.40326923 43.2708654,5.27634615 L43.2708654,5.24942308 L43.2708654,5.15326923 L43.2708654,5.14269231 L43.2708654,5.08980769 L43.2708654,5.03019231 C43.2708654,5.00134615 43.2650962,4.97057692 43.2650962,4.93980769 L43.2650962,4.91192308 C43.2333654,4.19653846 43.0554808,3.52057692 42.7602885,2.91192308 C42.7574038,2.90903846 42.7554808,2.90519231 42.7525962,2.90134615 C42.73625,2.86961538 42.7256731,2.83884615 42.7074038,2.81192308 C42.6939423,2.78980769 42.68625,2.76961538 42.6747115,2.7475 C42.6650962,2.73211538 42.6593269,2.7225 42.6516346,2.70711538 C42.4256731,2.28884615 42.1381731,1.89653846 41.7881731,1.54557692 C41.7824038,1.54269231 41.7775962,1.535 41.7718269,1.53019231 C41.7477885,1.51 41.7266346,1.48788462 41.7054808,1.46769231 C41.6920192,1.45615385 41.6814423,1.44365385 41.6679808,1.43115385 C41.6525962,1.41673077 41.6391346,1.40230769 41.6208654,1.38884615 C41.6016346,1.36865385 41.5804808,1.34846154 41.5564423,1.33211538 C41.5516346,1.32442308 41.5439423,1.31673077 41.5324038,1.31 C41.1824038,1.00230769 40.78625,0.739807692 40.3583654,0.538846154 C40.3583654,0.535961538 40.3564423,0.534038462 40.3564423,0.534038462 C40.3189423,0.518653846 40.2814423,0.501346154 40.2468269,0.483076923 C40.2468269,0.483076923 40.2391346,0.481153846 40.2391346,0.480192308 C40.2016346,0.465769231 40.1670192,0.448461538 40.1304808,0.436923077 C40.1275962,0.432115385 40.1218269,0.432115385 40.1199038,0.428269231 C40.0824038,0.416730769 40.0506731,0.403269231 40.0189423,0.387884615 C40.0102885,0.385961538 40.0054808,0.385961538 39.9977885,0.383076923 C39.9650962,0.369615385 39.9333654,0.358076923 39.9016346,0.345576923 C39.8939423,0.342692308 39.8852885,0.340769231 39.8804808,0.337884615 C39.84875,0.329230769 39.8170192,0.315769231 39.7843269,0.305192308 C39.7747115,0.303269231 39.7689423,0.300384615 39.76125,0.298461538 C39.7295192,0.286923077 39.6968269,0.278269231 39.6650962,0.267692308 C39.6602885,0.265769231 39.64875,0.262884615 39.6410577,0.262884615 C39.6093269,0.252307692 39.5775962,0.241730769 39.5458654,0.233076923 C39.5352885,0.229230769 39.5295192,0.228269231 39.5189423,0.227307692 C39.4900962,0.217692308 39.4574038,0.21 39.4256731,0.203269231 C39.4150962,0.200384615 39.4074038,0.1975 39.3997115,0.193653846 C39.3679808,0.185961538 39.3352885,0.180192308 39.3064423,0.1725 C39.2958654,0.169615385 39.2824038,0.168653846 39.2718269,0.165769231 C39.2458654,0.159038462 39.2160577,0.152307692 39.1872115,0.146538462 C39.17375,0.145576923 39.1602885,0.143653846 39.1468269,0.140769231 C39.1179808,0.135 39.0910577,0.130192308 39.0670192,0.124423077 C39.04875,0.120576923 39.0333654,0.118653846 39.0141346,0.116730769 C38.9929808,0.111923077 38.9689423,0.107115385 38.9429808,0.103269231 C38.92375,0.100384615 38.9025962,0.0984615385 38.8843269,0.0955769231 C38.8631731,0.0926923077 38.8439423,0.0898076923 38.8199038,0.0888461538 C38.7939423,0.0840384615 38.7670192,0.0830769231 38.7381731,0.0782692308 C38.7247115,0.0763461538 38.71125,0.0753846154 38.7006731,0.0734615385 C38.57375,0.06 38.4429808,0.0532692308 38.3179808,0.0494230769 L38.3025962,0.0494230769 C38.2593269,0.0494230769 38.2275962,0.0494230769 38.1910577,0.0475 L38.1852885,0.0475 L9.01990385,0.0475 C6.20836538,0.0475 3.92951923,2.32923077 3.92951923,5.14269231 C3.92951923,7.95519231 6.20836538,10.2378846 9.01990385,10.2378846 L27.6727885,10.2378846 L5.03721154,38.8917308 C4.81894231,39.16 4.63048077,39.4571154 4.47663462,39.7686538 C4.47375,39.7715385 4.47375,39.7744231 4.46894231,39.7763462 C4.45259615,39.81 4.43625,39.8465385 4.42086538,39.8801923 C4.41798077,39.8869231 4.41317308,39.8917308 4.41317308,39.8965385 C4.39971154,39.9273077 4.38336538,39.9628846 4.36798077,39.9926923 C4.36509615,39.9994231 4.36221154,40.0080769 4.35932692,40.0148077 C4.34586538,40.0446154 4.33048077,40.0744231 4.31701923,40.1061538 C4.31413462,40.1138462 4.31221154,40.1244231 4.30932692,40.1330769 C4.29586538,40.1619231 4.28528846,40.1926923 4.27182692,40.2225 C4.26894231,40.2340385 4.26701923,40.2417308 4.26413462,40.2494231 C4.25067308,40.2801923 4.24009615,40.3109615 4.22951923,40.3369231 C4.22375,40.3503846 4.22182692,40.36 4.21894231,40.3686538 C4.21125,40.3984615 4.19778846,40.4273077 4.19009615,40.4571154 C4.18432692,40.4676923 4.18144231,40.4782692 4.17855769,40.4888462 C4.17086538,40.5176923 4.16028846,40.5475 4.14971154,40.5734615 C4.14682692,40.5869231 4.14490385,40.5975 4.14201923,40.6080769 C4.13144231,40.6369231 4.12567308,40.6667308 4.11798077,40.6955769 C4.11509615,40.7071154 4.10932692,40.7167308 4.10740385,40.7273077 C4.09682692,40.7580769 4.09394231,40.7859615 4.08625,40.8157692 C4.08336538,40.8273077 4.08048077,40.8398077 4.07278846,40.8532692 C4.06798077,40.8792308 4.06221154,40.9071154 4.05740385,40.9340385 C4.05451923,40.9484615 4.04875,40.9628846 4.04586538,40.9773077 C4.04105769,41.0042308 4.03528846,41.0292308 4.03048077,41.0561538 C4.02759615,41.0734615 4.02471154,41.0888462 4.02278846,41.1032692 C4.01413462,41.1292308 4.01221154,41.1513462 4.00644231,41.1763462 C4.00644231,41.1965385 3.99875,41.2138462 3.99586538,41.235 C3.99586538,41.2542308 3.99298077,41.2773077 3.98721154,41.2965385 C3.98240385,41.3205769 3.97951923,41.3446154 3.97663462,41.3696154 C3.97471154,41.3840385 3.97471154,41.4051923 3.97182692,41.4186538 C3.96701923,41.4523077 3.96413462,41.4840385 3.96125,41.5138462 C3.96125,41.5244231 3.95548077,41.5359615 3.95548077,41.5446154 C3.94490385,41.6725 3.93432692,41.7994231 3.92951923,41.9282692 L3.92951923,41.9523077 L3.92951923,42.0532692 L3.92951923,42.0628846 L3.92951923,42.1128846 L3.92951923,42.1753846 C3.93144231,42.2061538 3.93144231,42.2340385 3.93432692,42.2638462 L3.93432692,42.2926923 C3.93721154,42.3340385 3.94298077,42.3676923 3.94298077,42.41 C3.98721154,43.0792308 4.16317308,43.7167308 4.44201923,44.2907692 C4.44490385,44.2955769 4.44682692,44.2984615 4.44682692,44.3032692 C4.46317308,44.3330769 4.47951923,44.3648077 4.49201923,44.3936538 C4.50548077,44.4167308 4.51701923,44.4369231 4.52663462,44.4551923 C4.53240385,44.4715385 4.54298077,44.485 4.54586538,44.4975 C4.76028846,44.8830769 5.02086538,45.2455769 5.33721154,45.5792308 C5.36125,45.6032692 5.39105769,45.6321154 5.41413462,45.6590385 C5.41990385,45.6638462 5.42471154,45.6696154 5.43048077,45.6744231 C5.45163462,45.6926923 5.47278846,45.7157692 5.49394231,45.7378846 C5.50740385,45.7494231 5.52375,45.7609615 5.53432692,45.7744231 C5.54971154,45.7888462 5.56605769,45.8003846 5.57951923,45.8167308 C5.60067308,45.8378846 5.62182692,45.8571154 5.64298077,45.8734615 C5.65067308,45.8821154 5.65932692,45.8869231 5.66413462,45.8936538 C6.01990385,46.2032692 6.41317308,46.4648077 6.84394231,46.6686538 C6.88048077,46.6869231 6.91798077,46.7051923 6.95548077,46.7215385 C6.95836538,46.7215385 6.96125,46.7244231 6.96125,46.7244231 C6.99778846,46.7398077 7.03528846,46.7561538 7.06990385,46.7696154 C7.07471154,46.7705769 7.07759615,46.7734615 7.08048077,46.7744231 C7.11701923,46.7907692 7.15259615,46.8013462 7.18625,46.8157692 C7.19201923,46.8186538 7.19682692,46.8196154 7.20259615,46.8225 C7.23432692,46.8359615 7.26605769,46.8484615 7.30067308,46.86 C7.30644231,46.8609615 7.31413462,46.8638462 7.31894231,46.8648077 C7.35355769,46.8763462 7.38528846,46.8888462 7.42086538,46.8994231 C7.42567308,46.9032692 7.43048077,46.9032692 7.43913462,46.9071154 C7.47086538,46.9157692 7.50548077,46.9253846 7.53721154,46.935 C7.54201923,46.9378846 7.55355769,46.9407692 7.55836538,46.9436538 C7.59009615,46.9542308 7.62182692,46.9619231 7.65355769,46.9705769 C7.66413462,46.9753846 7.67278846,46.9763462 7.68048077,46.9773077 C7.70932692,46.9859615 7.74490385,46.9946154 7.77663462,47.0013462 C7.78432692,47.0061538 7.79201923,47.0071154 7.80259615,47.0080769 C7.83528846,47.0186538 7.86413462,47.0253846 7.89298077,47.0311538 C7.90644231,47.0330769 7.91701923,47.0378846 7.92759615,47.0388462 C7.95451923,47.0455769 7.98625,47.0513462 8.01317308,47.0590385 C8.02855769,47.0619231 8.03913462,47.0619231 8.05548077,47.0648077 C8.08144231,47.0696154 8.10836538,47.0734615 8.13528846,47.0811538 C8.15067308,47.0840385 8.16701923,47.085 8.18240385,47.0878846 C8.20932692,47.0936538 8.23048077,47.0975 8.25740385,47.1013462 C8.27567308,47.1042308 8.29971154,47.1071154 8.31798077,47.1090385 C8.33721154,47.11 8.35836538,47.1138462 8.37951923,47.1157692 C8.40548077,47.1196154 8.43240385,47.1234615 8.46125,47.1263462 C8.47471154,47.1263462 8.48817308,47.1301923 8.50163462,47.1301923 C8.62855769,47.1407692 8.75644231,47.1513462 8.88432692,47.1542308 L8.90836538,47.1542308 C8.94009615,47.1542308 8.97471154,47.1551923 9.00932692,47.1551923 L9.01990385,47.1590385 L38.1852885,47.1590385 C40.9939423,47.1590385 43.2708654,44.8753846 43.2708654,42.0628846 C43.2708654,39.2503846 40.9939423,36.9686538 38.1852885,36.9686538 Z" id="Stroke-6502" stroke="#662D91" stroke-width="1.02884615"></path>
                <path d="M7.10542736e-15,23.7317308 L7.10542736e-15,23.6009615 C7.10542736e-15,10.6288462 9.9625,-3.55271368e-15 23.6634615,-3.55271368e-15 C37.3673077,-3.55271368e-15 47.2019231,10.4971154 47.2019231,23.4730769 L47.2019231,23.6009615 C47.2019231,36.5759615 37.2394231,47.2038462 23.5336538,47.2038462 C9.83269231,47.2038462 7.10542736e-15,36.7067308 7.10542736e-15,23.7317308 Z" id="Stroke-6504" stroke="#DA1C5C" stroke-width="0.771153846"></path>
            </g>
        </g>
        <g id="Group-6" transform="translate(54.000000, 0.000000)" fill="#58595B">
            <path d="M-1.20890952e-15,4.94920417 L-1.20890952e-15,4.92334306 C-1.20890952e-15,2.3379125 1.9355,0.220704167 4.68970833,0.220704167 C6.09233333,0.220704167 7.01448611,0.636523611 7.80733333,1.24698194 C7.97611111,1.3762875 8.11902778,1.59746806 8.11902778,1.88330139 C8.11902778,2.32498194 7.76786111,2.6625375 7.32686111,2.6625375 C7.10568056,2.6625375 6.94983333,2.58495417 6.84638889,2.50737083 C6.22231944,2.00035694 5.54720833,1.6886625 4.67677778,1.6886625 C2.94884722,1.6886625 1.67552778,3.11714861 1.67552778,4.89748194 L1.67552778,4.92334306 C1.67552778,6.70299583 2.93591667,8.1444125 4.67677778,8.1444125 C5.63840278,8.1444125 6.28765278,7.83271806 6.94983333,7.27398194 C7.06688889,7.1705375 7.23566667,7.09295417 7.43030556,7.09295417 C7.83319444,7.09295417 8.18368056,7.43050972 8.18368056,7.83271806 C8.18368056,8.07975972 8.06730556,8.27439861 7.92438889,8.40506528 C7.06688889,9.15844028 6.09233333,9.62598194 4.624375,9.62598194 C1.97429167,9.62598194 -1.20890952e-15,7.56049583 -1.20890952e-15,4.94920417" id="Fill-5170"></path>
            <path d="M9.75991528,3.32546667 C9.75991528,2.88378611 10.0974708,2.5333 10.5391514,2.5333 C10.9808319,2.5333 11.3319986,2.88378611 11.3319986,3.32546667 L11.3319986,4.02711944 C11.6954153,3.16961944 12.3705264,2.52036944 13.0592486,2.52036944 C13.5526514,2.52036944 13.8391653,2.84499444 13.8391653,3.29960556 C13.8391653,3.715425 13.5655819,3.98764722 13.2150958,4.05298056 C12.0983042,4.24761944 11.3319986,5.10511944 11.3319986,6.728925 L11.3319986,8.75561944 C11.3319986,9.18436944 10.9808319,9.53485556 10.5391514,9.53485556 C10.1104014,9.53485556 9.75991528,9.1973 9.75991528,8.75561944 L9.75991528,3.32546667 Z" id="Fill-5172"></path>
            <path d="M14.4938597,6.07913056 L14.4938597,6.05326944 C14.4938597,4.09190833 16.0523319,2.46810278 18.1572903,2.46810278 C20.2615681,2.46810278 21.8071097,4.06604722 21.8071097,6.02740833 L21.8071097,6.05326944 C21.8071097,8.00238056 20.2486375,9.62550556 18.1307486,9.62550556 C16.0394014,9.62550556 14.4938597,8.02756111 14.4938597,6.07913056 M20.2357069,6.07913056 L20.2357069,6.05326944 C20.2357069,4.84528333 19.3652764,3.84486667 18.1307486,3.84486667 C16.8710403,3.84486667 16.0652625,4.83235278 16.0652625,6.02740833 L16.0652625,6.05326944 C16.0652625,7.248325 16.9356931,8.24874167 18.1572903,8.24874167 C19.4299292,8.24874167 20.2357069,7.26125556 20.2357069,6.07913056" id="Fill-5174"></path>
            <path d="M22.9247181,7.49536667 L22.9247181,7.46950556 C22.9247181,5.98793611 24.0809819,5.26110278 25.7565097,5.26110278 C26.5228153,5.26110278 27.0686208,5.37815833 27.6008153,5.54625556 L27.6008153,5.37815833 C27.6008153,4.40360278 27.0032875,3.88365833 25.8994264,3.88365833 C25.3018986,3.88365833 24.8078153,3.98778333 24.3797458,4.15656111 C24.2885514,4.18310278 24.2109681,4.19603333 24.1327042,4.19603333 C23.7692875,4.19603333 23.4698431,3.90951944 23.4698431,3.54610278 C23.4698431,3.26026944 23.6651625,3.01390833 23.8985931,2.92271389 C24.5485236,2.67567222 25.2107042,2.519825 26.1069958,2.519825 C27.1339542,2.519825 27.9002597,2.79272778 28.3807319,3.28613056 C28.8870653,3.78021389 29.1211764,4.50772778 29.1211764,5.40401944 L29.1211764,8.78161667 C29.1211764,9.21036667 28.7836208,9.53499167 28.3548708,9.53499167 C27.9002597,9.53499167 27.5878847,9.22329722 27.5878847,8.87213056 L27.5878847,8.61215833 C27.1203431,9.17089444 26.4057597,9.612575 25.3536208,9.612575 C24.0680514,9.612575 22.9247181,8.87213056 22.9247181,7.49536667 M27.6266764,7.00196389 L27.6266764,6.53374167 C27.2244681,6.37789444 26.6922736,6.26151944 26.0682042,6.26151944 C25.0548569,6.26151944 24.4573292,6.69026944 24.4573292,7.40417222 L24.4573292,7.43003333 C24.4573292,8.09289444 25.0419264,8.46924167 25.7953014,8.46924167 C26.8345097,8.46924167 27.6266764,7.87171389 27.6266764,7.00196389" id="Fill-5176"></path>
            <path d="M31.2553306,7.57342639 L31.2553306,3.96171806 L30.9953583,3.96171806 C30.6183306,3.96171806 30.3202472,3.66295417 30.3202472,3.28660694 C30.3202472,2.90957917 30.6183306,2.61081528 30.9953583,2.61081528 L31.2553306,2.61081528 L31.2553306,1.44162083 C31.2553306,1.01287083 31.6058167,0.662384722 32.0474972,0.662384722 C32.4762472,0.662384722 32.8274139,1.01287083 32.8274139,1.44162083 L32.8274139,2.61081528 L34.0612611,2.61081528 C34.4376083,2.61081528 34.7493028,2.90957917 34.7493028,3.28660694 C34.7493028,3.66295417 34.4376083,3.96171806 34.0612611,3.96171806 L32.8274139,3.96171806 L32.8274139,7.32638472 C32.8274139,7.93684306 33.1391083,8.18388472 33.6713028,8.18388472 C33.8536917,8.18388472 34.0088583,8.1444125 34.0612611,8.1444125 C34.4117472,8.1444125 34.7234417,8.43092639 34.7234417,8.79434306 C34.7234417,9.08017639 34.5288028,9.31360694 34.3083028,9.40480139 C33.9700667,9.52185694 33.6454417,9.58650972 33.2296222,9.58650972 C32.0740389,9.58650972 31.2553306,9.08017639 31.2553306,7.57342639" id="Fill-5178"></path>
            <path d="M36.0518861,0.766305556 C36.0518861,0.298763889 36.4418444,6.04454758e-16 36.9481778,6.04454758e-16 C37.4545111,6.04454758e-16 37.8444694,0.298763889 37.8444694,0.766305556 L37.8444694,0.844569444 C37.8444694,1.31211111 37.4545111,1.62380556 36.9481778,1.62380556 C36.4418444,1.62380556 36.0518861,1.31211111 36.0518861,0.844569444 L36.0518861,0.766305556 Z M36.1682611,3.32519444 C36.1682611,2.88351389 36.5064972,2.53302778 36.9481778,2.53302778 C37.3898583,2.53302778 37.741025,2.88351389 37.741025,3.32519444 L37.741025,8.75534722 C37.741025,9.19702778 37.3898583,9.53458333 36.9481778,9.53458333 C36.5194278,9.53458333 36.1682611,9.19702778 36.1682611,8.75534722 L36.1682611,3.32519444 Z" id="Fill-5180"></path>
            <path d="M39.3288972,7.49536667 L39.3288972,7.46950556 C39.3288972,5.98793611 40.4851611,5.26110278 42.1606889,5.26110278 C42.9269944,5.26110278 43.4728,5.37815833 44.0049944,5.54625556 L44.0049944,5.37815833 C44.0049944,4.40360278 43.4074667,3.88365833 42.3036056,3.88365833 C41.7060778,3.88365833 41.2119944,3.98778333 40.7832444,4.15656111 C40.6927306,4.18310278 40.6151472,4.19603333 40.5368833,4.19603333 C40.1734667,4.19603333 39.8740222,3.90951944 39.8740222,3.54610278 C39.8740222,3.26026944 40.0693417,3.01390833 40.3027722,2.92271389 C40.9527028,2.67567222 41.6148833,2.519825 42.511175,2.519825 C43.5381333,2.519825 44.3044389,2.79272778 44.7849111,3.28613056 C45.2912444,3.78021389 45.5253556,4.50772778 45.5253556,5.40401944 L45.5253556,8.78161667 C45.5253556,9.21036667 45.1878,9.53499167 44.75905,9.53499167 C44.3044389,9.53499167 43.9920639,9.22329722 43.9920639,8.87213056 L43.9920639,8.61215833 C43.5245222,9.17089444 42.8099389,9.612575 41.7578,9.612575 C40.4722306,9.612575 39.3288972,8.87213056 39.3288972,7.49536667 M44.0308556,7.00196389 L44.0308556,6.53374167 C43.6286472,6.37789444 43.0964528,6.26151944 42.4723833,6.26151944 C41.4590361,6.26151944 40.8615083,6.69026944 40.8615083,7.40417222 L40.8615083,7.43003333 C40.8615083,8.09289444 41.4461056,8.46924167 42.1994806,8.46924167 C43.2386889,8.46924167 44.0308556,7.87171389 44.0308556,7.00196389" id="Fill-5182"></path>
            <path d="M47.4712,3.32546667 C47.4712,2.88378611 47.8087556,2.5333 48.2504361,2.5333 C48.6921167,2.5333 49.0426028,2.88378611 49.0426028,3.32546667 L49.0426028,3.66302222 C49.4842833,3.02602222 50.1212833,2.46796667 51.1863528,2.46796667 C52.7318944,2.46796667 53.6281861,3.507175 53.6281861,5.09218889 L53.6281861,8.75561944 C53.6281861,9.1973 53.2906306,9.53485556 52.84895,9.53485556 C52.4072694,9.53485556 52.0567833,9.1973 52.0567833,8.75561944 L52.0567833,5.57266111 C52.0567833,4.50759167 51.5239083,3.89645278 50.588825,3.89645278 C49.6789222,3.89645278 49.0426028,4.53345278 49.0426028,5.59852222 L49.0426028,8.75561944 C49.0426028,9.1973 48.6921167,9.53485556 48.2504361,9.53485556 C47.8216861,9.53485556 47.4712,9.1973 47.4712,8.75561944 L47.4712,3.32546667 Z" id="Fill-5184"></path>
            <path d="M0.402684722,14.0919917 C0.402684722,13.6503111 0.753170833,13.299825 1.2084625,13.299825 C1.65014306,13.299825 2.00062917,13.6503111 2.00062917,14.0919917 L2.00062917,17.1449639 L6.33917083,17.1449639 L6.33917083,14.0919917 C6.33917083,13.6503111 6.6903375,13.299825 7.13201806,13.299825 C7.58662917,13.299825 7.93711528,13.6503111 7.93711528,14.0919917 L7.93711528,21.7305472 C7.93711528,22.1722278 7.58662917,22.5227139 7.13201806,22.5227139 C6.6903375,22.5227139 6.33917083,22.1722278 6.33917083,21.7305472 L6.33917083,18.6258528 L2.00062917,18.6258528 L2.00062917,21.7305472 C2.00062917,22.1722278 1.65014306,22.5227139 1.2084625,22.5227139 C0.753170833,22.5227139 0.402684722,22.1722278 0.402684722,21.7305472 L0.402684722,14.0919917 Z" id="Fill-5186"></path>
            <path d="M13.329225,22.6139083 C11.3420028,22.6139083 9.80871111,21.1718111 9.80871111,19.0546028 L9.80871111,19.0280611 C9.80871111,17.0667 11.1984056,15.455825 13.1597667,15.455825 C15.3423083,15.455825 16.4209889,17.2490889 16.4209889,18.8334222 C16.4209889,19.2751028 16.0827528,19.5867972 15.6805444,19.5867972 L11.3807944,19.5867972 C11.5495722,20.7042694 12.3417389,21.3276583 13.3550861,21.3276583 C14.0172667,21.3276583 14.5372111,21.0935472 14.9788917,20.7301306 C15.0959472,20.6389361 15.2000722,20.5872139 15.3817806,20.5872139 C15.7322667,20.5872139 16.0051694,20.8601167 16.0051694,21.2235333 C16.0051694,21.4188528 15.9146556,21.5876306 15.7976,21.7046861 C15.1742111,22.2627417 14.3942944,22.6139083 13.329225,22.6139083 L13.329225,22.6139083 Z M14.8876972,18.5475889 C14.7842528,17.5349222 14.186725,16.742075 13.1468361,16.742075 C12.1858917,16.742075 11.5101,17.4825194 11.3678639,18.5475889 L14.8876972,18.5475889 Z" id="Fill-5188"></path>
            <path d="M17.5250542,20.4834292 L17.5250542,20.4575681 C17.5250542,18.9759986 18.6813181,18.2491653 20.3568458,18.2491653 C21.1231514,18.2491653 21.6689569,18.3662208 22.2011514,18.5343181 L22.2011514,18.3662208 C22.2011514,17.3916653 21.6036236,16.8717208 20.4997625,16.8717208 C19.9022347,16.8717208 19.4088319,16.9758458 18.9800819,17.1446236 C18.8888875,17.1711653 18.8113042,17.1840958 18.7330403,17.1840958 C18.3696236,17.1840958 18.0701792,16.8975819 18.0701792,16.5341653 C18.0701792,16.2483319 18.2654986,16.0019708 18.4989292,15.9107764 C19.1488597,15.6637347 19.8110403,15.5078875 20.7073319,15.5078875 C21.7342903,15.5078875 22.5005958,15.7807903 22.9810681,16.2741931 C23.4874014,16.7682764 23.7215125,17.4957903 23.7215125,18.3920819 L23.7215125,21.7696792 C23.7215125,22.1984292 23.3839569,22.5230542 22.9552069,22.5230542 C22.5005958,22.5230542 22.1882208,22.2113597 22.1882208,21.8601931 L22.1882208,21.6002208 C21.7206792,22.1589569 21.0060958,22.6006375 19.9539569,22.6006375 C18.6683875,22.6006375 17.5250542,21.8601931 17.5250542,20.4834292 M22.2270125,19.9900264 L22.2270125,19.5218042 C21.8248042,19.3659569 21.2926097,19.2495819 20.6685403,19.2495819 C19.6551931,19.2495819 19.0576653,19.6783319 19.0576653,20.3922347 L19.0576653,20.4180958 C19.0576653,21.0809569 19.6422625,21.4573042 20.3956375,21.4573042 C21.4348458,21.4573042 22.2270125,20.8597764 22.2270125,19.9900264" id="Fill-5190"></path>
            <path d="M25.7126819,13.6893069 C25.7126819,13.2605569 26.0509181,12.9100708 26.4925986,12.9100708 C26.9335986,12.9100708 27.2847653,13.2605569 27.2847653,13.6893069 L27.2847653,21.7436819 C27.2847653,22.1853625 26.9335986,22.5229181 26.4925986,22.5229181 C26.0638486,22.5229181 25.7126819,22.1853625 25.7126819,21.7436819 L25.7126819,13.6893069 Z" id="Fill-5192"></path>
            <path d="M29.6210444,20.5614208 L29.6210444,16.9497125 L29.3610722,16.9497125 C28.9840444,16.9497125 28.6859611,16.6509486 28.6859611,16.2746014 C28.6859611,15.8975736 28.9840444,15.5988097 29.3610722,15.5988097 L29.6210444,15.5988097 L29.6210444,14.4296153 C29.6210444,14.0008653 29.9715306,13.6503792 30.4132111,13.6503792 C30.8419611,13.6503792 31.1931278,14.0008653 31.1931278,14.4296153 L31.1931278,15.5988097 L32.426975,15.5988097 C32.8033222,15.5988097 33.1150167,15.8975736 33.1150167,16.2746014 C33.1150167,16.6509486 32.8033222,16.9497125 32.426975,16.9497125 L31.1931278,16.9497125 L31.1931278,20.3143792 C31.1931278,20.9248375 31.5041417,21.1718792 32.0370167,21.1718792 C32.2194056,21.1718792 32.3745722,21.1324069 32.426975,21.1324069 C32.7774611,21.1324069 33.0898361,21.4189208 33.0898361,21.7823375 C33.0898361,22.0681708 32.8945167,22.3016014 32.6733361,22.3927958 C32.3357806,22.5098514 32.0111556,22.5751847 31.5953361,22.5751847 C30.4397528,22.5751847 29.6210444,22.0681708 29.6210444,20.5614208" id="Fill-5194"></path>
            <path d="M34.5304361,13.6893069 C34.5304361,13.2605569 34.8679917,12.9100708 35.3096722,12.9100708 C35.7513528,12.9100708 36.1018389,13.2605569 36.1018389,13.6893069 L36.1018389,16.6510847 C36.5435194,16.0140847 37.1798389,15.4560292 38.2455889,15.4560292 C39.7911306,15.4560292 40.6874222,16.4952375 40.6874222,18.0802514 L40.6874222,21.7436819 C40.6874222,22.1853625 40.3498667,22.5229181 39.9081861,22.5229181 C39.4665056,22.5229181 39.1160194,22.1853625 39.1160194,21.7436819 L39.1160194,18.5607236 C39.1160194,17.4956542 38.5831444,16.8845153 37.6480611,16.8845153 C36.7381583,16.8845153 36.1018389,17.5215153 36.1018389,18.5865847 L36.1018389,21.7436819 C36.1018389,22.1853625 35.7513528,22.5229181 35.3096722,22.5229181 C34.8809222,22.5229181 34.5304361,22.1853625 34.5304361,21.7436819 L34.5304361,13.6893069 Z" id="Fill-5196"></path>
            <path d="M0.493811111,27.0805306 C0.493811111,26.63885 0.844297222,26.2883639 1.29890833,26.2883639 C1.74058889,26.2883639 2.09175556,26.63885 2.09175556,27.0805306 L2.09175556,34.7190861 C2.09175556,35.1607667 1.74058889,35.5112528 1.29890833,35.5112528 C0.844297222,35.5112528 0.493811111,35.1607667 0.493811111,34.7190861 L0.493811111,27.0805306 Z" id="Fill-5198"></path>
            <path d="M4.36413056,29.3020681 C4.36413056,28.8603875 4.70168611,28.5099014 5.14336667,28.5099014 C5.58504722,28.5099014 5.93553333,28.8603875 5.93553333,29.3020681 L5.93553333,29.6396236 C6.37721389,29.0033042 7.01353333,28.4445681 8.07928333,28.4445681 C9.624825,28.4445681 10.5211167,29.4837764 10.5211167,31.0687903 L10.5211167,34.7322208 C10.5211167,35.1739014 10.1835611,35.5114569 9.74188056,35.5114569 C9.3002,35.5114569 8.94971389,35.1739014 8.94971389,34.7322208 L8.94971389,31.5492625 C8.94971389,30.4841931 8.41683889,29.8730542 7.48175556,29.8730542 C6.57253333,29.8730542 5.93553333,30.5100542 5.93553333,31.5751236 L5.93553333,34.7322208 C5.93553333,35.1739014 5.58504722,35.5114569 5.14336667,35.5114569 C4.71461667,35.5114569 4.36413056,35.1739014 4.36413056,34.7322208 L4.36413056,29.3020681 Z" id="Fill-5200"></path>
            <path d="M12.2401319,34.7580139 C12.0713542,34.6668194 11.9413681,34.4721806 11.9413681,34.2122083 C11.9413681,33.8617222 12.2142708,33.5752083 12.5776875,33.5752083 C12.7076736,33.5752083 12.8247292,33.6146806 12.9159236,33.6664028 C13.5781042,34.1080833 14.2668264,34.3292639 14.8902153,34.3292639 C15.5653264,34.3292639 15.9552847,34.0434306 15.9552847,33.5888194 L15.9552847,33.5629583 C15.9552847,33.0300833 15.2277708,32.848375 14.4226736,32.6013333 C13.4093264,32.3161806 12.2789236,31.9003611 12.2789236,30.58825 L12.2789236,30.5623889 C12.2789236,29.2632083 13.3576042,28.4703611 14.7214375,28.4703611 C15.4489514,28.4703611 16.2152569,28.6779306 16.8774375,29.0290972 C17.0986181,29.1461528 17.2544653,29.3537222 17.2544653,29.626625 C17.2544653,29.9900417 16.9686319,30.2629444 16.6052153,30.2629444 C16.4752292,30.2629444 16.3969653,30.2377639 16.2935208,30.1853611 C15.7347847,29.8995278 15.1631181,29.7178194 14.6819653,29.7178194 C14.0721875,29.7178194 13.7210208,30.0036528 13.7210208,30.3929306 L13.7210208,30.4187917 C13.7210208,30.9258056 14.4614653,31.133375 15.2672431,31.3933472 C16.2676597,31.7050417 17.3973819,32.1596528 17.3973819,33.3941806 L17.3973819,33.4200417 C17.3973819,34.8614583 16.2805903,35.5767222 14.8514236,35.5767222 C13.9809931,35.5767222 13.0322986,35.3031389 12.2401319,34.7580139" id="Fill-5202"></path>
            <path d="M25.1356389,34.7320167 C25.1356389,35.1607667 24.7851528,35.5112528 24.3434722,35.5112528 C23.9147222,35.5112528 23.550625,35.1736972 23.550625,34.7320167 L23.550625,34.3815306 C23.1089444,35.0307806 22.472625,35.5895167 21.4075556,35.5895167 C19.8613333,35.5895167 18.9650417,34.5496278 18.9650417,32.9523639 L18.9650417,29.3018639 C18.9650417,28.8601833 19.3162083,28.5096972 19.7449583,28.5096972 C20.1866389,28.5096972 20.537125,28.8601833 20.537125,29.3018639 L20.537125,32.4848222 C20.537125,33.5498917 21.07,34.1474194 22.0050833,34.1474194 C22.9143056,34.1474194 23.550625,33.5240306 23.550625,32.4582806 L23.550625,29.3018639 C23.550625,28.8601833 23.9017917,28.5096972 24.3434722,28.5096972 C24.7722222,28.5096972 25.1356389,28.8601833 25.1356389,29.3018639 L25.1356389,34.7320167 Z" id="Fill-5204"></path>
            <path d="M27.1504917,29.3020681 C27.1504917,28.8603875 27.4880472,28.5099014 27.9297278,28.5099014 C28.3714083,28.5099014 28.722575,28.8603875 28.722575,29.3020681 L28.722575,30.0037208 C29.0859917,29.1462208 29.7611028,28.4969708 30.449825,28.4969708 C30.9432278,28.4969708 31.2297417,28.8215958 31.2297417,29.2762069 C31.2297417,29.6920264 30.9561583,29.9642486 30.6056722,30.0295819 C29.4888806,30.2242208 28.722575,31.0817208 28.722575,32.7055264 L28.722575,34.7322208 C28.722575,35.1609708 28.3714083,35.5114569 27.9297278,35.5114569 C27.5009778,35.5114569 27.1504917,35.1739014 27.1504917,34.7322208 L27.1504917,29.3020681 Z" id="Fill-5206"></path>
            <path d="M31.9639931,33.4719 L31.9639931,33.4460389 C31.9639931,31.9644694 33.1202569,31.2376361 34.7957847,31.2376361 C35.5620903,31.2376361 36.1078958,31.3546917 36.6400903,31.5227889 L36.6400903,31.3546917 C36.6400903,30.3801361 36.0432431,29.8601917 34.9387014,29.8601917 C34.3411736,29.8601917 33.8470903,29.9643167 33.4183403,30.1330944 C33.3278264,30.1596361 33.2502431,30.1725667 33.1719792,30.1725667 C32.8085625,30.1725667 32.5091181,29.8860528 32.5091181,29.5226361 C32.5091181,29.2368028 32.7044375,28.9904417 32.9378681,28.8992472 C33.5877986,28.6522056 34.2499792,28.4963583 35.1462708,28.4963583 C36.1732292,28.4963583 36.9395347,28.7692611 37.4200069,29.2626639 C37.9263403,29.7567472 38.1604514,30.4842611 38.1604514,31.3805528 L38.1604514,34.75815 C38.1604514,35.1869 37.8228958,35.511525 37.3941458,35.511525 C36.9395347,35.511525 36.6271597,35.1998306 36.6271597,34.8486639 L36.6271597,34.5886917 C36.1596181,35.1474278 35.4450347,35.5891083 34.3928958,35.5891083 C33.1073264,35.5891083 31.9639931,34.8486639 31.9639931,33.4719 M36.6659514,32.9784972 L36.6659514,32.510275 C36.2637431,32.3544278 35.7308681,32.2380528 35.1074792,32.2380528 C34.0948125,32.2380528 33.4966042,32.6668028 33.4966042,33.3807056 L33.4966042,33.4065667 C33.4966042,34.0694278 34.0812014,34.445775 34.8345764,34.445775 C35.8737847,34.445775 36.6659514,33.8489278 36.6659514,32.9784972" id="Fill-5208"></path>
            <path d="M40.1062958,29.3020681 C40.1062958,28.8603875 40.4438514,28.5099014 40.8855319,28.5099014 C41.3272125,28.5099014 41.6783792,28.8603875 41.6783792,29.3020681 L41.6783792,29.6396236 C42.1193792,29.0033042 42.7556986,28.4445681 43.8214486,28.4445681 C45.3669903,28.4445681 46.2632819,29.4837764 46.2632819,31.0687903 L46.2632819,34.7322208 C46.2632819,35.1739014 45.9257264,35.5114569 45.4840458,35.5114569 C45.0423653,35.5114569 44.6918792,35.1739014 44.6918792,34.7322208 L44.6918792,31.5492625 C44.6918792,30.4841931 44.1590042,29.8730542 43.2239208,29.8730542 C42.3140181,29.8730542 41.6783792,30.5100542 41.6783792,31.5751236 L41.6783792,34.7322208 C41.6783792,35.1739014 41.3272125,35.5114569 40.8855319,35.5114569 C40.4567819,35.5114569 40.1062958,35.1739014 40.1062958,34.7322208 L40.1062958,29.3020681 Z" id="Fill-5210"></path>
            <path d="M47.825225,32.0558 L47.825225,32.0299389 C47.825225,30.0815083 49.331975,28.4447722 51.3974611,28.4447722 C52.4754611,28.4447722 53.2165861,28.7952583 53.8005028,29.3022722 C53.9046278,29.3927861 54.0475444,29.587425 54.0475444,29.8473972 C54.0475444,30.2502861 53.7222389,30.5619806 53.3200306,30.5619806 C53.1253917,30.5619806 52.9559333,30.4843972 52.8518083,30.4061333 C52.4496,30.0685778 52.0079194,29.8215361 51.3845306,29.8215361 C50.2411972,29.8215361 49.3973083,30.8090222 49.3973083,32.0040778 L49.3973083,32.0299389 C49.3973083,33.2508556 50.2411972,34.2254111 51.4491833,34.2254111 C52.0725722,34.2254111 52.553725,33.9783694 52.982475,33.6142722 C53.0729889,33.5366889 53.2288361,33.446175 53.4105444,33.446175 C53.7875722,33.446175 54.0863361,33.7578694 54.0863361,34.1342167 C54.0863361,34.3424667 54.0087528,34.5112444 53.8658361,34.6283 C53.2546972,35.2128972 52.5142528,35.602175 51.3716,35.602175 C49.331975,35.602175 47.825225,34.0042306 47.825225,32.0558" id="Fill-5212"></path>
            <path d="M58.7112556,35.6023792 C56.7240333,35.6023792 55.1907417,34.1602819 55.1907417,32.0430736 L55.1907417,32.0165319 C55.1907417,30.0551708 56.5811167,28.4442958 58.5424778,28.4442958 C60.7243389,28.4442958 61.8023389,30.2375597 61.8023389,31.8218931 C61.8023389,32.2635736 61.4654639,32.5752681 61.062575,32.5752681 L56.7621444,32.5752681 C56.9316028,33.6927403 57.7237694,34.3161292 58.7371167,34.3161292 C59.3999778,34.3161292 59.9192417,34.0820181 60.3616028,33.7186014 C60.4779778,33.6274069 60.5821028,33.5756847 60.7638111,33.5756847 C61.1149778,33.5756847 61.3872,33.8485875 61.3872,34.2120042 C61.3872,34.4066431 61.2960056,34.5761014 61.1796306,34.6931569 C60.5562417,35.2512125 59.776325,35.6023792 58.7112556,35.6023792 L58.7112556,35.6023792 Z M60.2697278,31.5360597 C60.1669639,30.5233931 59.5687556,29.7305458 58.5288667,29.7305458 C57.5679222,29.7305458 56.8921306,30.4709903 56.7498944,31.5360597 L60.2697278,31.5360597 Z" id="Fill-5214"></path>
            <path d="M0.402684722,40.1465847 C0.402684722,39.6919736 0.753170833,39.3414875 1.2084625,39.3414875 L6.50862917,39.3414875 C6.91151806,39.3414875 7.23614306,39.6661125 7.23614306,40.0683208 C7.23614306,40.4712097 6.91151806,40.7958347 6.50862917,40.7958347 L2.00062917,40.7958347 L2.00062917,43.2771403 L5.92403194,43.2771403 C6.32624028,43.2771403 6.65086528,43.6024458 6.65086528,44.0046542 C6.65086528,44.4075431 6.32624028,44.7321681 5.92403194,44.7321681 L2.00062917,44.7321681 L2.00062917,47.7068764 C2.00062917,48.1485569 1.65014306,48.4997236 1.2084625,48.4997236 C0.753170833,48.4997236 0.402684722,48.1485569 0.402684722,47.7068764 L0.402684722,40.1465847 Z" id="Fill-5216"></path>
            <path d="M14.5053611,47.7200792 C14.5053611,48.1488292 14.154875,48.4993153 13.7131944,48.4993153 C13.2844444,48.4993153 12.9210278,48.1617597 12.9210278,47.7200792 L12.9210278,47.3695931 C12.4786667,48.0188431 11.8423472,48.5775792 10.7772778,48.5775792 C9.23173611,48.5775792 8.33544444,47.5376903 8.33544444,45.9404264 L8.33544444,42.2899264 C8.33544444,41.8482458 8.68593056,41.4977597 9.11468056,41.4977597 C9.55636111,41.4977597 9.90684722,41.8482458 9.90684722,42.2899264 L9.90684722,45.4728847 C9.90684722,46.5379542 10.4397222,47.1354819 11.3748056,47.1354819 C12.2840278,47.1354819 12.9210278,46.5120931 12.9210278,45.4463431 L12.9210278,42.2899264 C12.9210278,41.8482458 13.2715139,41.4977597 13.7131944,41.4977597 C14.1419444,41.4977597 14.5053611,41.8482458 14.5053611,42.2899264 L14.5053611,47.7200792 Z" id="Fill-5218"></path>
            <path d="M16.5202819,42.2900625 C16.5202819,41.8483819 16.8578375,41.4978958 17.2995181,41.4978958 C17.7411986,41.4978958 18.0923653,41.8483819 18.0923653,42.2900625 L18.0923653,42.6276181 C18.5333653,41.9912986 19.1703653,41.4325625 20.2354347,41.4325625 C21.7809764,41.4325625 22.6779486,42.4717708 22.6779486,44.0567847 L22.6779486,47.7202153 C22.6779486,48.1618958 22.3397125,48.4994514 21.8980319,48.4994514 C21.4563514,48.4994514 21.1058653,48.1618958 21.1058653,47.7202153 L21.1058653,44.5372569 C21.1058653,43.4721875 20.5729903,42.8610486 19.6379069,42.8610486 C18.7280042,42.8610486 18.0923653,43.4980486 18.0923653,44.5631181 L18.0923653,47.7202153 C18.0923653,48.1618958 17.7411986,48.4994514 17.2995181,48.4994514 C16.8707681,48.4994514 16.5202819,48.1618958 16.5202819,47.7202153 L16.5202819,42.2900625 Z" id="Fill-5220"></path>
            <path d="M31.3690514,47.7200792 C31.3690514,48.1617597 31.0185653,48.4993153 30.5898153,48.4993153 C30.1481347,48.4993153 29.7976486,48.1617597 29.7976486,47.7200792 L29.7976486,47.2913292 C29.2906347,48.0059125 28.5760514,48.5775792 27.4592597,48.5775792 C25.8483847,48.5775792 24.2763014,47.2913292 24.2763014,45.0175931 L24.2763014,44.9917319 C24.2763014,42.7186764 25.8225236,41.4324264 27.4592597,41.4324264 C28.5889819,41.4324264 29.3035653,41.9911625 29.7976486,42.6404125 L29.7976486,39.6657042 C29.7976486,39.2240236 30.1481347,38.8864681 30.5768847,38.8864681 C31.0185653,38.8864681 31.3690514,39.2240236 31.3690514,39.6657042 L31.3690514,47.7200792 Z M25.8613153,44.9917319 L25.8613153,45.0175931 C25.8613153,46.3426347 26.7705375,47.2130653 27.8356069,47.2130653 C28.8877458,47.2130653 29.8235097,46.3297042 29.8235097,45.0175931 L29.8235097,44.9917319 C29.8235097,43.6666903 28.8877458,42.7969403 27.8356069,42.7969403 C26.7576069,42.7969403 25.8613153,43.6278986 25.8613153,44.9917319 L25.8613153,44.9917319 Z" id="Fill-5222"></path>
        </g>
    </g>
</svg>